<svg width="41" height="45" viewBox="0 0 41 45" fill="none" xmlns="http://www.w3.org/2000/svg">
<g clip-path="url(#clip0)">
<path d="M-40.291 41.6366C-39.3338 46.9051 -38.4974 52.1924 -37.5402 57.4608C-34.5385 61.8732 -31.4345 66.2103 -28.4328 70.6226C-24.0743 73.6614 -19.7901 76.8036 -15.4316 79.8424C-10.2273 80.8114 -5.00453 81.6582 0.199688 82.6272C5.40391 81.6582 10.6267 80.8114 15.8309 79.8424C20.1895 76.8036 24.4737 73.6614 28.8322 70.6226C31.8339 66.2103 34.9379 61.8732 37.9396 57.4608C38.8968 52.1924 39.7332 46.9051 40.6904 41.6366C39.7332 36.3681 38.8968 31.0808 37.9396 25.8124C34.9379 21.4 31.8339 17.0629 28.8322 12.6506C24.4737 9.61181 20.1895 6.46955 15.8309 3.43077C10.636 2.45234 5.41321 1.60562 0.208984 0.636597C-4.99524 1.60562 -10.218 2.45234 -15.4223 3.42136C-19.7808 6.46014 -24.065 9.60241 -28.4235 12.6412C-31.4253 17.0535 -34.5292 21.3906 -37.5309 25.803C-38.4974 31.0714 -39.3338 36.3681 -40.291 41.6366ZM-33.7207 55.8615C-34.5757 51.1292 -35.3377 46.3688 -36.1834 41.6366C-35.3377 36.895 -34.5757 32.1439 -33.7207 27.4117C-31.0163 23.451 -28.2377 19.5466 -25.524 15.5859C-21.6116 12.8482 -17.7549 10.0258 -13.8424 7.28804C-9.16791 6.42251 -4.46552 5.65105 0.208984 4.79493C4.89278 5.65105 9.58588 6.42251 14.2604 7.28804C18.1728 10.0258 22.0295 12.8388 25.942 15.5859C28.6463 19.5466 31.4343 23.451 34.1386 27.4117C34.9936 32.1439 35.7557 36.9044 36.6014 41.6366C35.7464 46.3688 34.9843 51.1292 34.1294 55.8615C31.425 59.8222 28.6463 63.7265 25.9327 67.6873C22.0203 70.425 18.1635 73.2474 14.2511 75.9851C9.57658 76.8507 4.8742 77.6221 0.199688 78.4783C-4.48411 77.6221 -9.1772 76.8507 -13.8517 75.9851C-17.7642 73.2474 -21.6209 70.4344 -25.5333 67.6873C-28.2284 63.7265 -31.0163 59.8222 -33.7207 55.8615Z" fill="white" fill-opacity="0.03"/>
<path d="M-4.31689 41.6366C-4.23326 42.2293 -4.14961 42.8314 -4.05668 43.4241C-3.70354 43.9039 -3.3504 44.3931 -2.98796 44.8729C-2.514 45.2304 -2.04005 45.5973 -1.5568 45.9548C-0.971322 46.0395 -0.376552 46.1336 0.208923 46.2183C0.794398 46.1336 1.38916 46.0489 1.97464 45.9548C2.4486 45.5973 2.93185 45.2398 3.4058 44.8729C3.75895 44.3931 4.12138 43.9133 4.47452 43.4241C4.55816 42.8314 4.6511 42.2293 4.73474 41.6366C4.6511 41.0439 4.56746 40.4417 4.47452 39.849C4.12138 39.3692 3.76824 38.88 3.4058 38.4002C2.93185 38.0427 2.45789 37.6758 1.97464 37.3183C1.38916 37.2336 0.794398 37.1395 0.208923 37.0549C-0.376552 37.1395 -0.971322 37.2242 -1.5568 37.3183C-2.03075 37.6758 -2.514 38.0333 -2.98796 38.4002C-3.3411 38.88 -3.70354 39.3598 -4.05668 39.849C-4.14032 40.4417 -4.23326 41.0345 -4.31689 41.6366ZM-0.553127 41.9564C-0.571713 41.8529 -0.581006 41.7401 -0.599592 41.6366C-0.581006 41.5331 -0.571713 41.4202 -0.553127 41.3167C-0.488074 41.232 -0.423019 41.1473 -0.357966 41.0533C-0.274326 40.9874 -0.190688 40.9216 -0.0977559 40.8651C0.00446987 40.8463 0.115989 40.8369 0.218215 40.8181C0.320441 40.8369 0.43196 40.8463 0.534186 40.8651C0.617825 40.931 0.701463 40.9968 0.794396 41.0533C0.859448 41.1379 0.924502 41.2226 0.980262 41.3167C0.998848 41.4202 1.00814 41.5331 1.02673 41.6366C1.00814 41.7401 0.998848 41.8529 0.980262 41.9564C0.915209 42.0411 0.850155 42.1258 0.794396 42.2199C0.710756 42.2857 0.627119 42.3516 0.534186 42.4174C0.43196 42.4362 0.320441 42.4456 0.218215 42.4645C0.115989 42.4456 0.00446987 42.4362 -0.0977559 42.4174C-0.181395 42.3516 -0.265033 42.2857 -0.357966 42.2199C-0.432312 42.1258 -0.488074 42.0411 -0.553127 41.9564Z" fill="white" fill-opacity="0.03"/>
<path d="M-30.3472 41.6365C-29.6409 45.6161 -28.9904 49.6051 -28.2841 53.5847C-25.9979 56.9057 -23.6746 60.1891 -21.3978 63.5101C-18.1172 65.815 -14.8739 68.1764 -11.5934 70.4814C-7.66234 71.1964 -3.722 71.8456 0.209045 72.57C4.14009 71.855 8.08043 71.1964 12.0115 70.4814C15.292 68.167 18.5353 65.815 21.8159 63.5101C24.0927 60.1891 26.4253 56.9057 28.7022 53.5847C29.4084 49.6051 30.0497 45.6161 30.7653 41.6365C30.059 37.6569 29.4084 33.668 28.7022 29.6884C26.416 26.3674 24.0927 23.084 21.8159 19.763C18.5353 17.458 15.292 15.0966 12.0115 12.7916C8.08043 12.0766 4.14009 11.4275 0.209045 10.7031C-3.722 11.4181 -7.66234 12.0766 -11.5934 12.7916C-14.8739 15.106 -18.1172 17.458 -21.3978 19.763C-23.6746 23.084 -26.0072 26.3674 -28.2841 29.6884C-28.9904 33.668 -29.6316 37.6569 -30.3472 41.6365ZM-8.9634 45.475C-9.15855 44.1955 -9.34442 42.916 -9.52099 41.6271C-9.34442 40.3476 -9.15855 39.0587 -8.9634 37.7792C-8.21064 36.735 -7.4486 35.6907 -6.67726 34.6558C-5.655 33.8749 -4.63274 33.1035 -3.59189 32.3414C-2.32801 32.1439 -1.06413 31.9557 0.209045 31.7769C1.47293 31.9557 2.7461 32.1439 4.00998 32.3414C5.04153 33.1035 6.07309 33.8749 7.09534 34.6558C7.86669 35.6907 8.62873 36.7255 9.38148 37.7792C9.57664 39.0587 9.76251 40.3382 9.93908 41.6271C9.76251 42.9066 9.57664 44.1955 9.38148 45.475C8.62873 46.5193 7.86669 47.5635 7.09534 48.5984C6.07309 49.3793 5.05083 50.1507 4.00998 50.9128C2.7461 51.1104 1.48222 51.2985 0.209045 51.4773C-1.05484 51.2985 -2.32801 51.1104 -3.59189 50.9128C-4.62345 50.1507 -5.655 49.3793 -6.67726 48.5984C-7.4393 47.5635 -8.20135 46.5193 -8.9634 45.475ZM-18.3868 42.4174C-18.4053 42.2857 -18.396 42.2951 -18.3775 42.455C-18.3496 42.6526 -18.3496 42.6338 -18.3868 42.3986C-18.3868 42.408 -18.3868 42.408 -18.3868 42.4174ZM-12.3926 55.4945C-12.4948 55.4192 -12.4855 55.4192 -12.3554 55.5227C-12.1974 55.645 -12.216 55.6356 -12.4019 55.4851L-12.3926 55.4945ZM0.980385 60.4525C0.850279 60.4713 0.859573 60.4619 1.01756 60.4431C1.21272 60.4148 1.19413 60.4148 0.961798 60.4525C0.97109 60.4525 0.97109 60.4525 0.980385 60.4525ZM13.898 54.3937C13.8237 54.4972 13.8237 54.4878 13.9259 54.3561C14.0467 54.1962 14.0374 54.215 13.8887 54.4031L13.898 54.3937ZM18.7956 40.8556C18.8141 40.9874 18.8141 40.978 18.7863 40.818C18.7584 40.6204 18.7584 40.6393 18.7956 40.8745C18.7956 40.8651 18.7956 40.8556 18.7956 40.8556ZM12.8107 27.7786C12.9129 27.8538 12.9036 27.8538 12.7735 27.7503C12.6155 27.628 12.6341 27.6374 12.82 27.788C12.82 27.7786 12.8107 27.7786 12.8107 27.7786ZM-0.562296 22.8111C-0.43219 22.7923 -0.441483 22.8017 -0.608761 22.8205C-0.803919 22.8488 -0.785336 22.8488 -0.553003 22.8111H-0.562296ZM-13.4799 28.8793C-13.4056 28.7758 -13.4056 28.7852 -13.5078 28.9169C-13.6286 29.0769 -13.6193 29.058 -13.4706 28.8699C-13.4799 28.8699 -13.4799 28.8793 -13.4799 28.8793ZM-18.3868 40.8745C-18.3589 40.6393 -18.3496 40.611 -18.3775 40.818C-18.396 40.978 -18.396 40.9874 -18.3868 40.8556C-18.3868 40.8556 -18.3868 40.8651 -18.3868 40.8745ZM-13.4706 54.4031C-13.6193 54.215 -13.6286 54.1962 -13.5078 54.3561C-13.4056 54.4878 -13.4056 54.4972 -13.4799 54.3937C-13.4799 54.3937 -13.4799 54.4031 -13.4706 54.4031ZM-0.543709 60.4525C-0.776039 60.4243 -0.803921 60.4148 -0.599468 60.4431C-0.441484 60.4619 -0.432192 60.4619 -0.553003 60.4525C-0.562296 60.4525 -0.553001 60.4525 -0.543709 60.4525ZM12.82 55.4851C12.6341 55.6356 12.6155 55.645 12.7735 55.5227C12.9036 55.4192 12.9129 55.4192 12.8107 55.4945L12.82 55.4851ZM18.7956 42.3986C18.7677 42.6338 18.7584 42.662 18.7863 42.455C18.8048 42.2951 18.8048 42.2857 18.7956 42.4174C18.7956 42.408 18.7956 42.408 18.7956 42.3986ZM13.8887 28.8699C14.0374 29.058 14.0467 29.0769 13.9259 28.9169C13.8237 28.7852 13.8237 28.7758 13.898 28.8793L13.8887 28.8699ZM0.961798 22.8111C1.19413 22.8394 1.22201 22.8488 1.01756 22.8205C0.859573 22.8017 0.850279 22.8017 0.980385 22.8111C0.97109 22.8111 0.97109 22.8111 0.961798 22.8111ZM-12.4019 27.788C-12.216 27.6374 -12.1974 27.628 -12.3554 27.7503C-12.4855 27.8538 -12.4948 27.8538 -12.3926 27.7786C-12.3926 27.7786 -12.4019 27.7786 -12.4019 27.788ZM-18.2938 41.6365C-18.3403 41.7588 -18.3682 41.8905 -18.3868 42.0316C-18.4146 42.1728 -18.4053 42.3139 -18.3775 42.455C-18.3775 42.5679 -18.3496 42.6714 -18.3031 42.7749C-18.1916 43.0195 -18.1172 43.2076 -17.9221 43.3958C-17.4853 43.8286 -16.9184 43.8662 -16.3422 43.8192C-14.9018 43.678 -13.545 43.1512 -12.1974 42.662C-12.0395 43.8098 -11.8722 44.9575 -11.7049 46.1053C-15.1713 46.6416 -20.4034 47.0837 -20.9052 42.7467C-20.9517 42.3515 -20.9517 41.9846 -20.9052 41.6459C-20.9517 41.3072 -20.9517 40.9403 -20.9052 40.5452C-20.4034 36.2081 -15.1713 36.6503 -11.7049 37.1865C-11.8815 38.3343 -12.0395 39.4821 -12.1974 40.6299C-13.5543 40.1406 -14.9018 39.6138 -16.3422 39.4727C-16.9184 39.4162 -17.4853 39.4633 -17.9221 39.896C-18.1172 40.0842 -18.1916 40.2724 -18.3031 40.517C-18.3496 40.6204 -18.3775 40.7239 -18.3775 40.8368C-18.4053 40.978 -18.4146 41.1191 -18.3868 41.2602C-18.3682 41.3825 -18.3403 41.5142 -18.2938 41.6365ZM-12.8759 28.3901C-12.9967 28.4465 -13.1082 28.5124 -13.2197 28.6065C-13.3405 28.6817 -13.4335 28.7852 -13.5078 28.9075C-13.5821 28.9922 -13.6472 29.0769 -13.6751 29.1803C-13.7587 29.4344 -13.8424 29.6131 -13.8424 29.8954C-13.8331 30.5069 -13.4613 30.949 -13.0153 31.3254C-11.9001 32.2568 -10.5711 32.8495 -9.27937 33.4798C-9.96707 34.4018 -10.6548 35.3332 -11.3332 36.2646C-14.1583 34.1666 -18.1637 30.7327 -15.4966 27.2987C-15.2549 26.9883 -14.9947 26.7343 -14.7252 26.5273C-14.5208 26.2545 -14.2698 25.991 -13.9632 25.7464C-10.5804 23.0369 -7.18838 27.1012 -5.1067 29.9612C-6.02673 30.648 -6.94676 31.3348 -7.8575 32.0404C-8.47085 30.7233 -9.05633 29.3873 -9.98565 28.2584C-10.3574 27.8068 -10.7942 27.4305 -11.3982 27.4211C-11.6677 27.4211 -11.8536 27.4963 -12.1045 27.5904C-12.2067 27.628 -12.2997 27.6845 -12.374 27.7597C-12.4948 27.835 -12.5878 27.9291 -12.6714 28.0514C-12.755 28.1549 -12.8201 28.2678 -12.8759 28.3901ZM0.209045 22.9052C0.0882339 22.8582 -0.0418739 22.83 -0.181273 22.8111C-0.320671 22.7829 -0.46007 22.7923 -0.599468 22.8205C-0.710989 22.8205 -0.813213 22.8488 -0.91544 22.8958C-1.15706 23.0087 -1.34293 23.084 -1.5288 23.2815C-1.95628 23.7237 -1.99346 24.2976 -1.94699 24.8809C-1.80759 26.3391 -1.28717 27.7127 -0.803919 29.0769C-1.93769 29.2368 -3.07147 29.4061 -4.20525 29.5755C-4.73496 26.0663 -5.17175 20.7696 -0.887558 20.2616C-0.497242 20.2145 -0.134806 20.2145 0.199751 20.2616C0.534307 20.2145 0.896748 20.2145 1.28706 20.2616C5.57125 20.7696 5.13447 26.0663 4.60476 29.5755C3.47098 29.3967 2.3372 29.2368 1.20342 29.0769C1.68667 27.7033 2.2071 26.3391 2.34649 24.8809C2.40225 24.2976 2.35579 23.7237 1.9283 23.2815C1.74243 23.084 1.55657 23.0087 1.31494 22.8958C1.21272 22.8488 1.11049 22.8205 0.998972 22.8205C0.859573 22.7923 0.720173 22.7829 0.580774 22.8111C0.459963 22.83 0.329859 22.8582 0.209045 22.9052ZM13.2939 28.3901C13.2382 28.2678 13.1731 28.1549 13.0802 28.042C13.0059 27.9197 12.9036 27.8256 12.7828 27.7503C12.6992 27.6751 12.6155 27.6092 12.5133 27.581C12.2624 27.4963 12.0858 27.4116 11.807 27.4116C11.203 27.421 10.7662 27.7974 10.3945 28.249C9.47442 29.3779 8.88894 30.7233 8.26629 32.031C7.35556 31.3348 6.43552 30.6386 5.51549 29.9518C7.58789 27.0918 10.9799 23.0369 14.372 25.737C14.6786 25.9816 14.9296 26.2451 15.134 26.5179C15.4035 26.7249 15.6637 26.9789 15.9053 27.2893C18.5818 30.7138 14.5671 34.1478 11.742 36.2551C11.0636 35.3238 10.3759 34.3924 9.68816 33.4704C10.9892 32.8495 12.3089 32.2568 13.424 31.316C13.8701 30.9396 14.2419 30.5069 14.2511 29.8859C14.2511 29.6131 14.1768 29.425 14.0839 29.1709C14.0467 29.0674 13.9909 28.9734 13.9166 28.8981C13.8422 28.7758 13.74 28.6817 13.6285 28.597C13.517 28.5124 13.4148 28.4465 13.2939 28.3901ZM18.7119 41.6365C18.7584 41.5142 18.7863 41.3825 18.8048 41.2414C18.8327 41.1003 18.8234 40.9591 18.7956 40.818C18.7956 40.7051 18.7677 40.6016 18.7212 40.4981C18.6097 40.2535 18.5353 40.0654 18.3402 39.8772C17.9034 39.4445 17.3365 39.4068 16.7603 39.4539C15.3199 39.595 13.9631 40.1218 12.6155 40.611C12.4576 39.4633 12.2903 38.3155 12.123 37.1677C15.5894 36.6315 20.8215 36.1893 21.3233 40.5264C21.3698 40.9215 21.3698 41.2884 21.3233 41.6271C21.3698 41.9658 21.3698 42.3327 21.3233 42.7278C20.8215 47.0649 15.5894 46.6227 12.123 46.0865C12.2996 44.9387 12.4576 43.7909 12.6155 42.6432C13.9724 43.1324 15.3199 43.6592 16.7603 43.8004C17.3365 43.8568 17.9034 43.8098 18.3402 43.377C18.5353 43.1888 18.6097 43.0007 18.7212 42.7561C18.7677 42.6526 18.7956 42.5491 18.7956 42.4362C18.8234 42.2951 18.8327 42.154 18.8048 42.0128C18.7863 41.8905 18.7584 41.7588 18.7119 41.6365ZM13.2939 54.883C13.4148 54.8265 13.5263 54.7607 13.6378 54.6666C13.7586 54.5913 13.8515 54.4878 13.9259 54.3655C14.0002 54.2808 14.0653 54.1962 14.0932 54.0927C14.1768 53.8387 14.2604 53.6599 14.2604 53.3777C14.2511 52.7662 13.8794 52.324 13.4333 51.9477C12.3182 51.0163 10.9892 50.4236 9.69746 49.7932C10.3852 48.8713 11.0729 47.9399 11.7513 47.0085C14.5764 49.1065 18.5818 52.5404 15.9146 55.9743C15.673 56.2847 15.4128 56.5388 15.1433 56.7457C14.9389 57.0186 14.6879 57.282 14.3813 57.5266C10.9985 60.2361 7.60647 56.1718 5.52478 53.3118C6.44482 52.625 7.36485 51.9383 8.27559 51.2327C8.88894 52.5498 9.47441 53.8857 10.4037 55.0147C10.7755 55.4662 11.2123 55.8426 11.8163 55.852C12.0858 55.852 12.2717 55.7767 12.5226 55.6826C12.6248 55.645 12.7178 55.5886 12.7921 55.5133C12.9129 55.438 13.0059 55.3345 13.0895 55.2216C13.1638 55.1087 13.2382 55.0053 13.2939 54.883ZM0.209045 60.3678C0.329859 60.4148 0.459963 60.4431 0.599361 60.4619C0.73876 60.4901 0.878159 60.4807 1.01756 60.4525C1.12908 60.4525 1.2313 60.4243 1.33353 60.3772C1.57515 60.2643 1.76102 60.1891 1.94688 59.9915C2.37437 59.5493 2.41155 58.9754 2.36508 58.3921C2.22568 56.9339 1.70526 55.5603 1.22201 54.1962C2.35579 54.0362 3.48956 53.8669 4.62334 53.6975C5.15306 57.2067 5.58984 62.5034 1.30565 63.0115C0.915331 63.0585 0.552895 63.0585 0.218338 63.0115C-0.116219 63.0585 -0.478659 63.0585 -0.868975 63.0115C-5.15316 62.5034 -4.71638 57.2067 -4.18666 53.6975C-3.05289 53.8763 -1.91911 54.0362 -0.785336 54.1962C-1.26858 55.5697 -1.78901 56.9339 -1.9284 58.3921C-1.98416 58.9754 -1.9377 59.5493 -1.51021 59.9915C-1.32434 60.1891 -1.13848 60.2643 -0.896852 60.3772C-0.794626 60.4243 -0.692402 60.4525 -0.580883 60.4525C-0.441483 60.4807 -0.302084 60.4901 -0.162685 60.4619C-0.041872 60.4431 0.0882339 60.4148 0.209045 60.3678ZM-12.8759 54.883C-12.8201 55.0053 -12.755 55.1182 -12.6621 55.231C-12.5878 55.3534 -12.4855 55.4474 -12.3647 55.5227C-12.2811 55.598 -12.1974 55.6638 -12.0952 55.692C-11.8443 55.7767 -11.6677 55.8614 -11.3889 55.8614C-10.7849 55.852 -10.3481 55.4757 -9.97636 55.0241C-9.05633 53.8951 -8.47085 52.5498 -7.84821 51.2421C-6.93747 51.9383 -6.01744 52.6344 -5.0974 53.3212C-7.1698 56.1813 -10.5618 60.2361 -13.9539 57.536C-14.2605 57.2914 -14.5115 57.028 -14.7159 56.7551C-14.9854 56.5482 -15.2456 56.2942 -15.4873 55.9837C-18.1637 52.5592 -14.149 49.1253 -11.3239 47.0179C-10.6455 47.9493 -9.95777 48.8807 -9.27007 49.8026C-10.5711 50.4236 -11.8908 51.0163 -13.006 51.9571C-13.452 52.3334 -13.8238 52.7756 -13.8331 53.3871C-13.8331 53.6599 -13.7587 53.8481 -13.6658 54.1021C-13.6286 54.2056 -13.5728 54.2997 -13.4985 54.3749C-13.4242 54.4972 -13.3219 54.5913 -13.2104 54.676C-13.1082 54.7512 -12.9967 54.8265 -12.8759 54.883ZM-24.3344 41.6365C-24.3995 42.201 -24.3809 42.8125 -24.2787 43.4805C-23.6189 47.5259 -20.1711 48.6078 -16.5281 48.6549C-19.0745 51.2985 -20.7565 54.5255 -18.396 57.8653C-18.0057 58.4109 -17.5875 58.8531 -17.1508 59.2106C-16.8069 59.6528 -16.3608 60.0762 -15.8218 60.4713C-12.5227 62.8609 -9.33513 61.1581 -6.72372 58.5803C-6.67726 62.2682 -5.60853 65.7586 -1.61243 66.4265C-0.952614 66.5394 -0.348549 66.5489 0.209045 66.483C0.766642 66.5489 1.3707 66.53 2.03052 66.4265C6.02662 65.7586 7.09534 62.2682 7.14181 58.5803C9.75322 61.1581 12.9408 62.8609 16.2399 60.4713C16.7789 60.0762 17.2157 59.6528 17.5688 59.2106C18.0056 58.8625 18.4238 58.4109 18.8141 57.8653C21.1746 54.5255 19.4925 51.2985 16.9462 48.6549C20.5891 48.6078 24.0369 47.5259 24.6968 43.4805C24.8083 42.8125 24.8176 42.201 24.7525 41.6365C24.8176 41.072 24.799 40.4605 24.6968 39.7925C24.0369 35.7471 20.5891 34.6652 16.9462 34.6182C19.4925 31.9745 21.1746 28.7476 18.8141 25.4077C18.4238 24.8621 18.0056 24.4199 17.5688 24.0624C17.225 23.6202 16.7789 23.1969 16.2399 22.8017C12.9408 20.4121 9.75322 22.1149 7.14181 24.6927C7.09534 21.0048 6.02662 17.5144 2.03052 16.8465C1.3707 16.7336 0.766642 16.7242 0.209045 16.79C-0.348549 16.7242 -0.952614 16.743 -1.61243 16.8465C-5.60853 17.5144 -6.67726 21.0048 -6.72372 24.6927C-9.33513 22.1149 -12.5227 20.4121 -15.8218 22.8017C-16.3608 23.1969 -16.7976 23.6202 -17.1508 24.0624C-17.5875 24.4105 -18.0057 24.8621 -18.396 25.4077C-20.7565 28.7476 -19.0745 31.9745 -16.5281 34.6182C-20.1711 34.6652 -23.6189 35.7471 -24.2787 39.7925C-24.3809 40.4605 -24.3995 41.072 -24.3344 41.6365ZM-25.8957 52.578C-26.5369 48.9371 -27.1317 45.2774 -27.7729 41.6365C-27.1317 37.9862 -26.5369 34.3359 -25.8957 30.695C-23.8047 27.6562 -21.6766 24.6457 -19.5856 21.6069C-16.5839 19.4901 -13.61 17.3357 -10.6083 15.2189C-7.01181 14.5697 -3.39674 13.9676 0.199751 13.3185C3.80553 13.9676 7.41132 14.5697 11.0078 15.2189C14.0095 17.3357 16.9834 19.4901 19.9851 21.6069C22.0761 24.6457 24.2042 27.6562 26.2952 30.695C26.9364 34.3359 27.5312 37.9956 28.1724 41.6365C27.5312 45.2774 26.9364 48.9371 26.2952 52.578C24.2042 55.6168 22.0761 58.6273 19.9851 61.6661C16.9834 63.7829 14.0095 65.9373 11.0078 68.0541C7.41132 68.7033 3.79624 69.3054 0.199751 69.9545C-3.40603 69.3054 -7.01181 68.7033 -10.6083 68.0541C-13.61 65.9373 -16.5839 63.7829 -19.5856 61.6661C-21.6673 58.6273 -23.8047 55.6168 -25.8957 52.578Z" fill="white" fill-opacity="0.03"/>
</g>
<defs>
<clipPath id="clip0">
<rect width="81" height="82" fill="white" transform="translate(-40.291 0.636597)"/>
</clipPath>
</defs>
</svg>
