<svg width="79" height="125" viewBox="0 0 79 125" fill="none" xmlns="http://www.w3.org/2000/svg">
<g clip-path="url(#clip0)">
<path d="M0.753906 62.3176C2.21926 70.2846 3.49966 78.28 4.96501 86.2469C9.56024 92.9193 14.312 99.4778 18.9072 106.15C25.5795 110.745 32.138 115.497 38.8104 120.092C46.7773 121.558 54.7727 122.838 62.7397 124.303C70.7066 122.838 78.702 121.558 86.669 120.092C93.3413 115.497 99.8998 110.745 106.572 106.15C111.167 99.4778 115.919 92.9193 120.514 86.2469C121.98 78.28 123.26 70.2846 124.725 62.3176C123.26 54.3507 121.98 46.3553 120.514 38.3883C115.919 31.716 111.167 25.1575 106.572 18.4851C99.8998 13.8899 93.3413 9.13819 86.669 4.54296C78.7163 3.06338 70.7209 1.78298 62.7539 0.317627C54.7869 1.78298 46.7915 3.06338 38.8246 4.52873C32.1523 9.12396 25.5937 13.8757 18.9214 18.4709C14.3262 25.1432 9.57447 31.7017 4.97924 38.3741C3.49966 46.341 2.21926 54.3507 0.753906 62.3176ZM10.8122 83.8284C9.50333 76.6724 8.33674 69.4737 7.04211 62.3176C8.33674 55.1474 9.50333 47.9629 10.8122 40.8068C14.9522 34.8174 19.2059 28.9133 23.3601 22.9239C29.3496 18.7839 35.2537 14.5159 41.2431 10.3759C48.3992 9.06705 55.5979 7.90046 62.7539 6.60583C69.9242 7.90046 77.1087 9.06705 84.2647 10.3759C90.2541 14.5159 96.1582 18.7697 102.148 22.9239C106.288 28.9133 110.556 34.8174 114.696 40.8068C116.004 47.9629 117.171 55.1616 118.466 62.3176C117.157 69.4737 115.99 76.6724 114.681 83.8284C110.541 89.8178 106.288 95.7219 102.133 101.711C96.144 105.851 90.2399 110.119 84.2505 114.259C77.0944 115.568 69.8957 116.735 62.7397 118.029C55.5694 116.735 48.3849 115.568 41.2289 114.259C35.2394 110.119 29.3354 105.866 23.3459 101.711C19.2202 95.7219 14.9522 89.8178 10.8122 83.8284Z" fill="white" fill-opacity="0.05"/>
<path d="M55.8254 62.3176C55.9535 63.2139 56.0815 64.1244 56.2238 65.0206C56.7644 65.7462 57.305 66.486 57.8599 67.2116C58.5854 67.7522 59.311 68.307 60.0508 68.8476C60.9471 68.9757 61.8576 69.1179 62.7539 69.246C63.6501 69.1179 64.5606 68.9899 65.4569 68.8476C66.1825 68.307 66.9223 67.7664 67.6478 67.2116C68.1885 66.486 68.7433 65.7604 69.2839 65.0206C69.4119 64.1244 69.5542 63.2139 69.6823 62.3176C69.5542 61.4213 69.4262 60.5108 69.2839 59.6145C68.7433 58.8889 68.2027 58.1491 67.6478 57.4236C66.9223 56.883 66.1967 56.3281 65.4569 55.7875C64.5606 55.6595 63.6501 55.5172 62.7539 55.3892C61.8576 55.5172 60.9471 55.6452 60.0508 55.7875C59.3252 56.3281 58.5854 56.8687 57.8599 57.4236C57.3192 58.1491 56.7644 58.8747 56.2238 59.6145C56.0958 60.5108 55.9535 61.4071 55.8254 62.3176ZM61.5873 62.8013C61.5588 62.6448 61.5446 62.4741 61.5161 62.3176C61.5446 62.1611 61.5588 61.9904 61.5873 61.8339C61.6868 61.7058 61.7864 61.5778 61.886 61.4355C62.0141 61.3359 62.1421 61.2363 62.2844 61.151C62.4409 61.1225 62.6116 61.1083 62.7681 61.0798C62.9246 61.1083 63.0953 61.1225 63.2518 61.151C63.3798 61.2506 63.5079 61.3502 63.6501 61.4355C63.7497 61.5636 63.8493 61.6916 63.9347 61.8339C63.9631 61.9904 63.9773 62.1611 64.0058 62.3176C63.9773 62.4741 63.9631 62.6448 63.9347 62.8013C63.8351 62.9293 63.7355 63.0574 63.6501 63.1996C63.5221 63.2992 63.3941 63.3988 63.2518 63.4984C63.0953 63.5268 62.9246 63.5411 62.7681 63.5695C62.6116 63.5411 62.4409 63.5268 62.2844 63.4984C62.1563 63.3988 62.0283 63.2992 61.886 63.1996C61.7722 63.0574 61.6868 62.9293 61.5873 62.8013Z" fill="white" fill-opacity="0.05"/>
<path d="M15.9766 62.3176C17.0578 68.3355 18.0537 74.3676 19.1349 80.3855C22.6347 85.4075 26.1913 90.3726 29.6769 95.3947C34.6989 98.8802 39.664 102.451 44.6861 105.937C50.704 107.018 56.7361 108 62.754 109.095C68.7719 108.014 74.804 107.018 80.8219 105.937C85.8439 102.437 90.809 98.8802 95.8311 95.3947C99.3166 90.3726 102.888 85.4075 106.373 80.3855C107.454 74.3676 108.436 68.3355 109.531 62.3176C108.45 56.2997 107.454 50.2676 106.373 44.2497C102.873 39.2276 99.3166 34.2625 95.8311 29.2405C90.809 25.7549 85.8439 22.184 80.8219 18.6985C74.804 17.6173 68.7719 16.6356 62.754 15.5402C56.7361 16.6214 50.704 17.6173 44.6861 18.6985C39.664 22.1983 34.6989 25.7549 29.6769 29.2405C26.1913 34.2625 22.6204 39.2276 19.1349 44.2497C18.0537 50.2676 17.072 56.2997 15.9766 62.3176ZM48.7122 68.1221C48.4134 66.1872 48.1289 64.2524 47.8586 62.3033C48.1289 60.3685 48.4134 58.4195 48.7122 56.4846C49.8646 54.9055 51.0312 53.3263 52.212 51.7614C53.7769 50.5805 55.3419 49.4139 56.9352 48.2616C58.8701 47.9628 60.8049 47.6783 62.754 47.408C64.6888 47.6783 66.6379 47.9628 68.5727 48.2616C70.1519 49.4139 71.731 50.5805 73.296 51.7614C74.4768 53.3263 75.6434 54.8912 76.7957 56.4846C77.0945 58.4195 77.379 60.3543 77.6493 62.3033C77.379 64.2382 77.0945 66.1872 76.7957 68.1221C75.6434 69.7012 74.4768 71.2804 73.296 72.8453C71.731 74.0261 70.1661 75.1927 68.5727 76.3451C66.6379 76.6439 64.703 76.9284 62.754 77.1987C60.8191 76.9284 58.8701 76.6439 56.9352 76.3451C55.3561 75.1927 53.7769 74.0261 52.212 72.8453C51.0454 71.2804 49.8788 69.7012 48.7122 68.1221ZM34.2863 63.4984C34.2579 63.2992 34.2721 63.3134 34.3006 63.5553C34.3432 63.8541 34.3432 63.8256 34.2863 63.4699C34.2863 63.4842 34.2863 63.4842 34.2863 63.4984ZM43.4626 83.2735C43.3061 83.1597 43.3203 83.1597 43.5195 83.3162C43.7613 83.5011 43.7329 83.4869 43.4483 83.2593L43.4626 83.2735ZM63.9348 90.771C63.7356 90.7994 63.7498 90.7852 63.9917 90.7568C64.2905 90.7141 64.262 90.7141 63.9063 90.771C63.9206 90.771 63.9206 90.771 63.9348 90.771ZM83.7099 81.609C83.5961 81.7655 83.5961 81.7513 83.7526 81.5521C83.9375 81.3102 83.9233 81.3387 83.6957 81.6232L83.7099 81.609ZM91.2074 61.1368C91.2358 61.3359 91.2358 61.3217 91.1932 61.0798C91.1505 60.7811 91.1505 60.8095 91.2074 61.1652C91.2074 61.151 91.2074 61.1368 91.2074 61.1368ZM82.0454 41.3616C82.2019 41.4754 82.1877 41.4754 81.9885 41.319C81.7466 41.134 81.7751 41.1482 82.0596 41.3759C82.0596 41.3616 82.0454 41.3616 82.0454 41.3616ZM61.5732 33.8499C61.7723 33.8215 61.7581 33.8357 61.502 33.8642C61.2033 33.9068 61.2317 33.9068 61.5874 33.8499H61.5732ZM41.798 43.0262C41.9118 42.8697 41.9118 42.8839 41.7554 43.0831C41.5704 43.3249 41.5846 43.2965 41.8123 43.0119C41.798 43.0119 41.798 43.0262 41.798 43.0262ZM34.2863 61.1652C34.329 60.8095 34.3432 60.7669 34.3006 61.0798C34.2721 61.3217 34.2721 61.3359 34.2863 61.1368C34.2863 61.1368 34.2863 61.151 34.2863 61.1652ZM41.8123 81.6232C41.5846 81.3387 41.5704 81.3102 41.7554 81.5521C41.9118 81.7513 41.9118 81.7655 41.798 81.609C41.798 81.609 41.798 81.6232 41.8123 81.6232ZM61.6016 90.771C61.2459 90.7283 61.2033 90.7141 61.5162 90.7568C61.7581 90.7852 61.7723 90.7852 61.5874 90.771C61.5732 90.771 61.5874 90.771 61.6016 90.771ZM82.0596 83.2593C81.7751 83.4869 81.7466 83.5011 81.9885 83.3162C82.1877 83.1597 82.2019 83.1597 82.0454 83.2735L82.0596 83.2593ZM91.2074 63.4699C91.1647 63.8256 91.1505 63.8683 91.1932 63.5553C91.2216 63.3134 91.2216 63.2992 91.2074 63.4984C91.2074 63.4842 91.2074 63.4842 91.2074 63.4699ZM83.6957 43.0119C83.9233 43.2965 83.9375 43.3249 83.7526 43.0831C83.5961 42.8839 83.5961 42.8697 83.7099 43.0262L83.6957 43.0119ZM63.9063 33.8499C64.262 33.8926 64.3047 33.9068 63.9917 33.8642C63.7498 33.8357 63.7356 33.8357 63.9348 33.8499C63.9206 33.8499 63.9206 33.8499 63.9063 33.8499ZM43.4483 41.3759C43.7329 41.1482 43.7613 41.134 43.5195 41.319C43.3203 41.4754 43.3061 41.4754 43.4626 41.3616C43.4626 41.3616 43.4483 41.3616 43.4483 41.3759ZM34.4286 62.3176C34.3575 62.5025 34.3148 62.7017 34.2863 62.9151C34.2437 63.1285 34.2579 63.3419 34.3006 63.5553C34.3006 63.726 34.3432 63.8825 34.4144 64.039C34.5851 64.4089 34.6989 64.6934 34.9977 64.978C35.6663 65.6324 36.5342 65.6893 37.4162 65.6182C39.6213 65.4048 41.6984 64.6081 43.7613 63.8683C44.0032 65.6039 44.2593 67.3396 44.5153 69.0753C39.2088 69.8862 31.1991 70.5548 30.4309 63.9963C30.3598 63.3988 30.3598 62.844 30.4309 62.3318C30.3598 61.8196 30.3598 61.2648 30.4309 60.6673C31.1991 54.1088 39.2088 54.7774 44.5153 55.5883C44.245 57.324 44.0032 59.0597 43.7613 60.7953C41.6842 60.0555 39.6213 59.2588 37.4162 59.0454C36.5342 58.9601 35.6663 59.0312 34.9977 59.6856C34.6989 59.9702 34.5851 60.2547 34.4144 60.6246C34.3432 60.7811 34.3006 60.9376 34.3006 61.1083C34.2579 61.3217 34.2437 61.5351 34.2863 61.7485C34.3148 61.9334 34.3575 62.1326 34.4286 62.3176ZM42.7228 42.2864C42.5378 42.3717 42.3671 42.4713 42.1964 42.6136C42.0114 42.7274 41.8692 42.8839 41.7554 43.0688C41.6415 43.1969 41.542 43.3249 41.4993 43.4814C41.3712 43.8655 41.2432 44.1358 41.2432 44.5626C41.2574 45.4874 41.8265 46.156 42.5094 46.7251C44.2166 48.1335 46.251 49.0298 48.2285 49.983C47.1757 51.3772 46.123 52.7857 45.0844 54.1941C40.7595 51.0216 34.6278 45.8288 38.7108 40.6361C39.0807 40.1666 39.4791 39.7825 39.8917 39.4695C40.2046 39.0569 40.5888 38.6586 41.0582 38.2887C46.2368 34.1914 51.4295 40.3373 54.6163 44.6622C53.2079 45.7008 51.7994 46.7393 50.4052 47.8063C49.4662 45.8146 48.5699 43.7944 47.1473 42.0872C46.5782 41.4043 45.9096 40.8352 44.9848 40.821C44.5722 40.821 44.2877 40.9348 43.9036 41.0771C43.7471 41.134 43.6048 41.2194 43.491 41.3332C43.3061 41.447 43.1638 41.5893 43.0358 41.7742C42.9077 41.9307 42.8081 42.1014 42.7228 42.2864ZM62.754 33.9922C62.569 33.9211 62.3699 33.8784 62.1564 33.8499C61.943 33.8073 61.7296 33.8215 61.5162 33.8642C61.3455 33.8642 61.189 33.9068 61.0325 33.978C60.6626 34.1487 60.3781 34.2625 60.0936 34.5613C59.4391 35.2299 59.3822 36.0978 59.4534 36.9798C59.6668 39.1849 60.4635 41.262 61.2033 43.3249C59.4676 43.5668 57.7319 43.8229 55.9963 44.0789C55.1854 38.7724 54.5167 30.7627 61.0752 29.9945C61.6727 29.9234 62.2276 29.9234 62.7397 29.9945C63.2519 29.9234 63.8068 29.9234 64.4043 29.9945C70.9628 30.7627 70.2941 38.7724 69.4832 44.0789C67.7475 43.8086 66.0119 43.5668 64.2762 43.3249C65.016 41.2478 65.8127 39.1849 66.0261 36.9798C66.1115 36.0978 66.0403 35.2299 65.3859 34.5613C65.1014 34.2625 64.8168 34.1487 64.4469 33.978C64.2905 33.9068 64.134 33.8642 63.9632 33.8642C63.7498 33.8215 63.5364 33.8073 63.323 33.8499C63.1381 33.8784 62.9389 33.9211 62.754 33.9922ZM82.7852 42.2864C82.6998 42.1014 82.6002 41.9307 82.458 41.76C82.3441 41.575 82.1877 41.4328 82.0027 41.319C81.8747 41.2051 81.7466 41.1056 81.5901 41.0629C81.206 40.9348 80.9357 40.8068 80.5089 40.8068C79.5842 40.821 78.9155 41.3901 78.3464 42.073C76.938 43.7802 76.0417 45.8146 75.0885 47.7921C73.6943 46.7393 72.2859 45.6866 70.8774 44.648C74.05 40.3231 79.2427 34.1914 84.4355 38.2744C84.905 38.6443 85.2891 39.0427 85.6021 39.4553C86.0146 39.7682 86.413 40.1524 86.7829 40.6218C90.8802 45.8004 84.7342 50.9931 80.4093 54.1799C79.3708 52.7715 78.318 51.363 77.2652 49.9688C79.2569 49.0298 81.2771 48.1335 82.9843 46.7109C83.6672 46.1418 84.2363 45.4874 84.2505 44.5484C84.2505 44.1358 84.1367 43.8513 83.9944 43.4672C83.9375 43.3107 83.8522 43.1684 83.7384 43.0546C83.6245 42.8697 83.4681 42.7274 83.2973 42.5994C83.1266 42.4713 82.9701 42.3717 82.7852 42.2864ZM91.0793 62.3176C91.1505 62.1326 91.1932 61.9334 91.2216 61.72C91.2643 61.5066 91.2501 61.2932 91.2074 61.0798C91.2074 60.9091 91.1647 60.7526 91.0936 60.5961C90.9229 60.2262 90.809 59.9417 90.5103 59.6572C89.8416 59.0027 88.9738 58.9458 88.0917 59.017C85.8866 59.2304 83.8095 60.0271 81.7466 60.7669C81.5048 59.0312 81.2487 57.2955 80.9926 55.5599C86.2992 54.749 94.3088 54.0803 95.077 60.6388C95.1482 61.2363 95.1482 61.7912 95.077 62.3033C95.1482 62.8155 95.1482 63.3703 95.077 63.9679C94.3088 70.5264 86.2992 69.8577 80.9926 69.0468C81.2629 67.3111 81.5048 65.5755 81.7466 63.8398C83.8237 64.5796 85.8866 65.3763 88.0917 65.5897C88.9738 65.6751 89.8416 65.6039 90.5103 64.9495C90.809 64.665 90.9229 64.3804 91.0936 64.0105C91.1647 63.8541 91.2074 63.6976 91.2074 63.5268C91.2501 63.3134 91.2643 63.1 91.2216 62.8866C91.1932 62.7017 91.1505 62.5025 91.0793 62.3176ZM82.7852 82.3488C82.9701 82.2634 83.1408 82.1638 83.3116 82.0216C83.4965 81.9077 83.6388 81.7513 83.7526 81.5663C83.8664 81.4383 83.966 81.3102 84.0087 81.1537C84.1367 80.7696 84.2648 80.4993 84.2648 80.0725C84.2505 79.1478 83.6815 78.4791 82.9986 77.91C81.2914 76.5016 79.257 75.6053 77.2794 74.6521C78.3322 73.2579 79.385 71.8495 80.4235 70.441C84.7485 73.6136 90.8802 78.8063 86.7971 83.9991C86.4272 84.4686 86.0289 84.8527 85.6163 85.1657C85.3033 85.5782 84.9192 85.9766 84.4497 86.3465C79.2712 90.4438 74.0784 84.2978 70.8916 79.9729C72.3001 78.9344 73.7085 77.8958 75.1027 76.8288C76.0417 78.8205 76.938 80.8407 78.3607 82.5479C78.9297 83.2308 79.5984 83.7999 80.5231 83.8141C80.9357 83.8141 81.2202 83.7003 81.6044 83.558C81.7608 83.5011 81.9031 83.4158 82.0169 83.302C82.2019 83.1881 82.3441 83.0317 82.4722 82.8609C82.586 82.6902 82.6998 82.5337 82.7852 82.3488ZM62.754 90.6429C62.9389 90.7141 63.1381 90.7568 63.3515 90.7852C63.5649 90.8279 63.7783 90.8137 63.9917 90.771C64.1624 90.771 64.3189 90.7283 64.4754 90.6572C64.8453 90.4865 65.1298 90.3726 65.4144 90.0739C66.0688 89.4052 66.1257 88.5374 66.0546 87.6553C65.8412 85.4502 65.0445 83.3731 64.3047 81.3102C66.0403 81.0684 67.776 80.8123 69.5117 80.5562C70.3226 85.8628 70.9912 93.8724 64.4327 94.6406C63.8352 94.7118 63.2804 94.7118 62.7682 94.6406C62.256 94.7118 61.7012 94.7118 61.1037 94.6406C54.5452 93.8724 55.2138 85.8628 56.0247 80.5562C57.7604 80.8265 59.4961 81.0684 61.2317 81.3102C60.4919 83.3873 59.6952 85.4502 59.4818 87.6553C59.3965 88.5374 59.4676 89.4052 60.122 90.0739C60.4066 90.3726 60.6911 90.4865 61.061 90.6572C61.2175 90.7283 61.374 90.771 61.5447 90.771C61.7581 90.8137 61.9715 90.8279 62.1849 90.7852C62.3699 90.7568 62.569 90.7141 62.754 90.6429ZM42.7228 82.3488C42.8081 82.5337 42.9077 82.7044 43.05 82.8752C43.1638 83.0601 43.3203 83.2024 43.5052 83.3162C43.6333 83.43 43.7613 83.5296 43.9178 83.5723C44.3019 83.7003 44.5722 83.8284 44.999 83.8284C45.9238 83.8141 46.5924 83.2451 47.1615 82.5622C48.5699 80.855 49.4662 78.8205 50.4194 76.843C51.8136 77.8958 53.2221 78.9486 54.6305 79.9871C51.458 84.3121 46.2652 90.4438 41.0725 86.3607C40.603 85.9908 40.2189 85.5925 39.9059 85.1799C39.4933 84.8669 39.095 84.4828 38.7251 84.0133C34.6278 78.8348 40.7737 73.642 45.0986 70.4552C46.1372 71.8637 47.19 73.2721 48.2427 74.6663C46.251 75.6053 44.2308 76.5016 42.5236 77.9243C41.8407 78.4933 41.2716 79.162 41.2574 80.0867C41.2574 80.4993 41.3712 80.7838 41.5135 81.168C41.5704 81.3244 41.6558 81.4667 41.7696 81.5805C41.8834 81.7655 42.0399 81.9077 42.2106 82.0358C42.3671 82.1496 42.5378 82.2634 42.7228 82.3488ZM25.1812 62.3176C25.0817 63.1712 25.1101 64.0959 25.2666 65.106C26.2767 71.2235 31.5548 72.8596 37.1317 72.9307C33.2336 76.9284 30.6585 81.8082 34.2721 86.8586C34.8696 87.6838 35.5098 88.3524 36.1785 88.8931C36.7049 89.5617 37.3878 90.2019 38.2129 90.7994C43.2634 94.413 48.1431 91.838 52.1408 87.9399C52.212 93.5167 53.848 98.7948 59.9655 99.8049C60.9756 99.9757 61.9004 99.9899 62.754 99.8903C63.6076 99.9899 64.5323 99.9614 65.5424 99.8049C71.6599 98.7948 73.296 93.5167 73.3671 87.9399C77.3648 91.838 82.2446 94.413 87.295 90.7994C88.1202 90.2019 88.7888 89.5617 89.3295 88.8931C89.9981 88.3667 90.6383 87.6838 91.2358 86.8586C94.8494 81.8082 92.2744 76.9284 88.3763 72.9307C93.9531 72.8596 99.2312 71.2235 100.241 65.106C100.412 64.0959 100.426 63.1712 100.327 62.3176C100.426 61.464 100.398 60.5392 100.241 59.5291C99.2312 53.4116 93.9531 51.7756 88.3763 51.7044C92.2744 47.7067 94.8494 42.827 91.2358 37.7765C90.6383 36.9514 89.9981 36.2827 89.3295 35.7421C88.8031 35.0734 88.1202 34.4332 87.295 33.8357C82.2446 30.2221 77.3648 32.7972 73.3671 36.6953C73.296 31.1184 71.6599 25.8403 65.5424 24.8302C64.5323 24.6595 63.6076 24.6453 62.754 24.7448C61.9004 24.6453 60.9756 24.6737 59.9655 24.8302C53.848 25.8403 52.212 31.1184 52.1408 36.6953C48.1431 32.7972 43.2634 30.2221 38.2129 33.8357C37.3878 34.4332 36.7191 35.0734 36.1785 35.7421C35.5098 36.2685 34.8696 36.9514 34.2721 37.7765C30.6585 42.827 33.2336 47.7067 37.1317 51.7044C31.5548 51.7756 26.2767 53.4116 25.2666 59.5291C25.1101 60.5392 25.0817 61.464 25.1812 62.3176ZM22.7912 78.8632C21.8095 73.3575 20.899 67.8233 19.9174 62.3176C20.899 56.7976 21.8095 51.2776 22.7912 45.7719C25.9922 41.1767 29.2501 36.6241 32.4511 32.0289C37.0463 28.8279 41.5989 25.57 46.1941 22.369C51.6998 21.3873 57.234 20.4768 62.7397 19.4952C68.2597 20.4768 73.7797 21.3873 79.2854 22.369C83.8806 25.57 88.4332 28.8279 93.0284 32.0289C96.2294 36.6241 99.4873 41.1767 102.688 45.7719C103.67 51.2776 104.58 56.8118 105.562 62.3176C104.58 67.8233 103.67 73.3575 102.688 78.8632C99.4873 83.4585 96.2294 88.011 93.0284 92.6062C88.4332 95.8072 83.8806 99.0652 79.2854 102.266C73.7797 103.248 68.2455 104.158 62.7397 105.14C57.2198 104.158 51.6998 103.248 46.1941 102.266C41.5989 99.0652 37.0463 95.8072 32.4511 92.6062C29.2643 88.011 25.9922 83.4585 22.7912 78.8632Z" fill="white" fill-opacity="0.05"/>
</g>
<defs>
<clipPath id="clip0">
<rect width="124" height="124" fill="white" transform="translate(0.753906 0.317627)"/>
</clipPath>
</defs>
</svg>
